<svg width="216" height="55" viewBox="0 0 216 55" fill="none" xmlns="http://www.w3.org/2000/svg">
<path d="M60.5625 45H56.0781V22.5938H60.5625V33.7969L68.9062 22.5938H74L66.9219 32.0469L74 45H68.9062L63.9844 35.9375L60.5625 40.5156V45ZM90.7344 36.4844C90.7344 37.7344 90.5104 38.901 90.0625 39.9844C89.6146 41.0573 89.0052 41.9896 88.2344 42.7812C87.4635 43.5625 86.5573 44.1823 85.5156 44.6406C84.4844 45.0885 83.375 45.3125 82.1875 45.3125C81.0104 45.3125 79.901 45.0885 78.8594 44.6406C77.8281 44.1823 76.9219 43.5625 76.1406 42.7812C75.3698 41.9896 74.7604 41.0573 74.3125 39.9844C73.8646 38.901 73.6406 37.7344 73.6406 36.4844C73.6406 35.2135 73.8646 34.0365 74.3125 32.9531C74.7604 31.8698 75.3698 30.9375 76.1406 30.1562C76.9219 29.3646 77.8281 28.7448 78.8594 28.2969C79.901 27.849 81.0104 27.625 82.1875 27.625C83.375 27.625 84.4844 27.8385 85.5156 28.2656C86.5573 28.6823 87.4635 29.2812 88.2344 30.0625C89.0052 30.8333 89.6146 31.7656 90.0625 32.8594C90.5104 33.9427 90.7344 35.151 90.7344 36.4844ZM86.4375 36.4844C86.4375 35.7969 86.3229 35.1771 86.0938 34.625C85.875 34.0625 85.5729 33.5833 85.1875 33.1875C84.8021 32.7812 84.349 32.474 83.8281 32.2656C83.3177 32.0469 82.7708 31.9375 82.1875 31.9375C81.6042 31.9375 81.0521 32.0469 80.5312 32.2656C80.0208 32.474 79.5729 32.7812 79.1875 33.1875C78.8125 33.5833 78.5156 34.0625 78.2969 34.625C78.0781 35.1771 77.9688 35.7969 77.9688 36.4844C77.9688 37.1302 78.0781 37.7292 78.2969 38.2812C78.5156 38.8333 78.8125 39.3125 79.1875 39.7188C79.5729 40.125 80.0208 40.4479 80.5312 40.6875C81.0521 40.9167 81.6042 41.0312 82.1875 41.0312C82.7708 41.0312 83.3177 40.9219 83.8281 40.7031C84.349 40.4844 84.8021 40.1771 85.1875 39.7812C85.5729 39.3854 85.875 38.9062 86.0938 38.3438C86.3229 37.7812 86.4375 37.1615 86.4375 36.4844ZM102.281 45H92.5312V40.75H102.281C102.573 40.75 102.823 40.6458 103.031 40.4375C103.24 40.2292 103.344 39.9792 103.344 39.6875C103.344 39.3854 103.24 39.1875 103.031 39.0938C102.823 39 102.573 38.9531 102.281 38.9531H97.8438C97.1042 38.9531 96.4115 38.8125 95.7656 38.5312C95.1198 38.25 94.5573 37.8698 94.0781 37.3906C93.599 36.901 93.2188 36.3333 92.9375 35.6875C92.6667 35.0417 92.5312 34.349 92.5312 33.6094C92.5312 32.8698 92.6667 32.1771 92.9375 31.5312C93.2188 30.8854 93.599 30.3229 94.0781 29.8438C94.5573 29.3646 95.1198 28.9896 95.7656 28.7188C96.4115 28.4375 97.1042 28.2969 97.8438 28.2969H106.484V32.5469H97.8438C97.5521 32.5469 97.3021 32.651 97.0938 32.8594C96.8854 33.0677 96.7812 33.3177 96.7812 33.6094C96.7812 33.9115 96.8854 34.1719 97.0938 34.3906C97.3021 34.599 97.5521 34.7031 97.8438 34.7031H102.281C103.01 34.7031 103.698 34.8281 104.344 35.0781C104.99 35.3177 105.552 35.6562 106.031 36.0938C106.51 36.5312 106.891 37.0573 107.172 37.6719C107.453 38.2865 107.594 38.9583 107.594 39.6875C107.594 40.4271 107.453 41.1198 107.172 41.7656C106.891 42.401 106.51 42.9635 106.031 43.4531C105.552 43.9323 104.99 44.3125 104.344 44.5938C103.698 44.8646 103.01 45 102.281 45ZM118.266 45C117.234 45 116.266 44.8073 115.359 44.4219C114.453 44.026 113.656 43.4896 112.969 42.8125C112.292 42.125 111.755 41.3281 111.359 40.4219C110.974 39.5156 110.781 38.5469 110.781 37.5156V32.5469H108.703V28.2969H110.781V21.6094H115.031V28.2969H121.5V32.5469H115.031V37.5156C115.031 37.9635 115.115 38.3854 115.281 38.7812C115.448 39.1667 115.677 39.5052 115.969 39.7969C116.26 40.0885 116.604 40.3229 117 40.5C117.396 40.6667 117.818 40.75 118.266 40.75H121.5V45H118.266ZM128.844 45H124.359V22.5938H140.047V27.0781H128.844V31.5625H135.562V36.0469H128.844V45ZM146.938 23.7188C146.938 24.1146 146.859 24.4844 146.703 24.8281C146.557 25.1719 146.354 25.474 146.094 25.7344C145.833 25.9844 145.526 26.1875 145.172 26.3438C144.828 26.4896 144.458 26.5625 144.062 26.5625C143.667 26.5625 143.292 26.4896 142.938 26.3438C142.594 26.1875 142.292 25.9844 142.031 25.7344C141.781 25.474 141.578 25.1719 141.422 24.8281C141.276 24.4844 141.203 24.1146 141.203 23.7188C141.203 23.3333 141.276 22.9688 141.422 22.625C141.578 22.2708 141.781 21.9688 142.031 21.7188C142.292 21.4583 142.594 21.2552 142.938 21.1094C143.292 20.9531 143.667 20.875 144.062 20.875C144.458 20.875 144.828 20.9531 145.172 21.1094C145.526 21.2552 145.833 21.4583 146.094 21.7188C146.354 21.9688 146.557 22.2708 146.703 22.625C146.859 22.9688 146.938 23.3333 146.938 23.7188ZM146.203 45H141.906V28.2656H146.203V45ZM153.734 45H149.469V28.2656H150.5L151.906 29.8906C152.594 29.2656 153.37 28.7865 154.234 28.4531C155.109 28.1094 156.021 27.9375 156.969 27.9375C157.99 27.9375 158.953 28.1354 159.859 28.5312C160.766 28.9167 161.557 29.4531 162.234 30.1406C162.911 30.8177 163.443 31.6146 163.828 32.5312C164.224 33.4375 164.422 34.4062 164.422 35.4375V45H160.156V35.4375C160.156 35 160.073 34.5885 159.906 34.2031C159.74 33.8073 159.51 33.4635 159.219 33.1719C158.927 32.8802 158.589 32.651 158.203 32.4844C157.818 32.3177 157.406 32.2344 156.969 32.2344C156.521 32.2344 156.099 32.3177 155.703 32.4844C155.307 32.651 154.964 32.8802 154.672 33.1719C154.38 33.4635 154.151 33.8073 153.984 34.2031C153.818 34.5885 153.734 35 153.734 35.4375V45ZM183.641 45H182.609L180.953 42.7031C180.547 43.0677 180.115 43.4115 179.656 43.7344C179.208 44.0469 178.734 44.3229 178.234 44.5625C177.734 44.7917 177.219 44.974 176.688 45.1094C176.167 45.2448 175.635 45.3125 175.094 45.3125C173.917 45.3125 172.807 45.0938 171.766 44.6562C170.734 44.2083 169.828 43.5938 169.047 42.8125C168.276 42.0208 167.667 41.0885 167.219 40.0156C166.771 38.9323 166.547 37.7552 166.547 36.4844C166.547 35.224 166.771 34.0521 167.219 32.9688C167.667 31.8854 168.276 30.9479 169.047 30.1562C169.828 29.3646 170.734 28.7448 171.766 28.2969C172.807 27.849 173.917 27.625 175.094 27.625C175.469 27.625 175.854 27.6562 176.25 27.7188C176.656 27.7812 177.047 27.8854 177.422 28.0312C177.807 28.1667 178.167 28.349 178.5 28.5781C178.833 28.8073 179.115 29.0885 179.344 29.4219V21.6094H183.641V45ZM179.344 36.4844C179.344 35.901 179.229 35.3385 179 34.7969C178.781 34.2448 178.479 33.7604 178.094 33.3438C177.708 32.9167 177.255 32.5781 176.734 32.3281C176.224 32.0677 175.677 31.9375 175.094 31.9375C174.51 31.9375 173.958 32.0417 173.438 32.25C172.927 32.4583 172.479 32.7604 172.094 33.1562C171.719 33.5417 171.422 34.0156 171.203 34.5781C170.984 35.1406 170.875 35.776 170.875 36.4844C170.875 37.099 170.984 37.6823 171.203 38.2344C171.422 38.7865 171.719 39.2708 172.094 39.6875C172.479 40.1042 172.927 40.4323 173.438 40.6719C173.958 40.9115 174.51 41.0312 175.094 41.0312C175.677 41.0312 176.224 40.9062 176.734 40.6562C177.255 40.3958 177.708 40.0573 178.094 39.6406C178.479 39.2135 178.781 38.7292 179 38.1875C179.229 37.6354 179.344 37.0677 179.344 36.4844ZM193.562 40.9062C193.729 40.9583 193.896 40.9948 194.062 41.0156C194.229 41.026 194.396 41.0312 194.562 41.0312C194.979 41.0312 195.38 40.974 195.766 40.8594C196.151 40.7448 196.51 40.5833 196.844 40.375C197.188 40.1562 197.49 39.8958 197.75 39.5938C198.021 39.2812 198.24 38.9375 198.406 38.5625L201.531 41.7031C201.135 42.2656 200.677 42.7708 200.156 43.2188C199.646 43.6667 199.089 44.0469 198.484 44.3594C197.891 44.6719 197.26 44.9062 196.594 45.0625C195.938 45.2292 195.26 45.3125 194.562 45.3125C193.385 45.3125 192.276 45.0938 191.234 44.6562C190.203 44.2188 189.297 43.6094 188.516 42.8281C187.745 42.0469 187.135 41.1198 186.688 40.0469C186.24 38.9635 186.016 37.776 186.016 36.4844C186.016 35.1615 186.24 33.9531 186.688 32.8594C187.135 31.7656 187.745 30.8333 188.516 30.0625C189.297 29.2917 190.203 28.6927 191.234 28.2656C192.276 27.8385 193.385 27.625 194.562 27.625C195.26 27.625 195.943 27.7083 196.609 27.875C197.276 28.0417 197.906 28.2812 198.5 28.5938C199.104 28.9062 199.667 29.2917 200.188 29.75C200.708 30.1979 201.167 30.7031 201.562 31.2656L193.562 40.9062ZM195.75 32.1094C195.552 32.0365 195.354 31.9896 195.156 31.9688C194.969 31.9479 194.771 31.9375 194.562 31.9375C193.979 31.9375 193.427 32.0469 192.906 32.2656C192.396 32.474 191.948 32.776 191.562 33.1719C191.188 33.5677 190.891 34.0469 190.672 34.6094C190.453 35.1615 190.344 35.7865 190.344 36.4844C190.344 36.6406 190.349 36.8177 190.359 37.0156C190.38 37.2135 190.406 37.4167 190.438 37.625C190.479 37.8229 190.526 38.0156 190.578 38.2031C190.63 38.3906 190.698 38.5573 190.781 38.7031L195.75 32.1094ZM207.984 45H203.719V28.2656H204.75L206.156 30.25C206.844 29.625 207.625 29.1458 208.5 28.8125C209.375 28.4688 210.281 28.2969 211.219 28.2969H214.984V32.5469H211.219C210.771 32.5469 210.349 32.6302 209.953 32.7969C209.557 32.9635 209.214 33.1927 208.922 33.4844C208.63 33.776 208.401 34.1198 208.234 34.5156C208.068 34.9115 207.984 35.3333 207.984 35.7812V45Z" fill="#673E42"/>
<path d="M31.2578 26.7354C31.0007 26.821 30.7205 26.9117 30.4229 27L29.8184 27.1729C27.5405 27.7985 25.1454 28.6678 23.1279 29.5605C21.2565 30.3887 19.6514 31.262 18.7822 32.0068L18.6182 32.1533V32.1543C17.9083 32.8256 17.3904 33.5018 17.2012 34.2246C17.0022 34.9851 17.1867 35.7138 17.6963 36.417C18.1911 37.0998 19.0054 37.7798 20.1182 38.5039C20.9578 39.0502 21.9881 39.6345 23.2178 40.2744L24.5146 40.9336C29.0088 43.1702 31.3343 44.6985 32.5547 46.1396L32.7842 46.4268C33.6798 47.6169 33.9991 49.5743 33.5508 51.4502L33.4512 51.8242C33.3226 52.2583 33.2408 52.5791 33.1426 52.8818C33.0483 53.1725 32.9587 53.3803 32.8467 53.542C32.6482 53.8286 32.3133 54.0701 31.4102 54.2354C30.494 54.403 29.093 54.4745 26.873 54.4941C25.7674 54.5039 24.4683 54.5002 22.9375 54.4912L17.6104 54.4531H17.6094L5.2207 54.3662L6.57129 53.6504C8.16794 52.804 9.72145 51.7388 10.9355 50.7051C11.5426 50.1882 12.0725 49.6733 12.4824 49.1914C12.8342 48.7779 13.1216 48.361 13.2812 47.9688L13.3418 47.8018C13.4734 47.386 13.528 46.9694 13.4678 46.5303C13.4078 46.0936 13.2383 45.6654 12.9648 45.2197C12.4957 44.4552 11.6871 43.5862 10.4834 42.4678L9.94238 41.9727C9.11869 41.2273 8.29737 40.3965 7.63965 39.6611C7.04994 39.0018 6.62666 38.4566 6.43359 38.127L6.36523 37.999C5.98574 37.1975 5.90698 36.439 6.09277 35.7109C6.28076 34.9744 6.75118 34.2238 7.54785 33.4707C9.05146 32.0493 11.6378 30.6936 15.3135 29.4775L16.0625 29.2363C18.6887 28.4132 23.8031 27.3742 27.0537 26.9883L27.6777 26.9199C29.0147 26.7875 30.2961 26.7283 31.2578 26.7354ZM18.8281 0.601562C18.991 0.725565 19.2183 0.914938 19.5039 1.16504C20.0731 1.66349 20.8502 2.3821 21.7666 3.25195C23.5983 4.99068 25.9722 7.3215 28.3242 9.67871C30.6762 12.0359 33.0035 14.4163 34.7412 16.2549C35.6107 17.1749 36.3296 17.9557 36.8291 18.5283C37.0797 18.8156 37.2694 19.0443 37.3945 19.209C37.4398 19.2686 37.471 19.3167 37.4941 19.3516C37.4829 19.4915 37.4503 19.5976 37.4023 19.6807C37.344 19.7817 37.2483 19.8794 37.0879 19.9678C36.7477 20.1552 36.1614 20.2754 35.2344 20.2754H32.8906V24.4268L29.0371 24.6729C27.8485 24.7483 26.6176 24.825 25.5918 24.8877L23.377 25.0176L22.5342 25.0615L22.3662 21.5215L22.1748 17.4785L22.1523 17.0215L21.6953 17.0029L18.9219 16.8896L16.1494 16.7773L15.6406 16.7568L15.6289 17.2656L15.5215 21.9805L15.4209 26.3281L12.2236 27.2578C10.377 27.7941 9.10566 28.2288 8.06543 28.749C7.14529 29.2092 6.4185 29.7298 5.63672 30.4258L5.29688 30.7354L5.08203 30.9355V20.2754H2.70801C1.77583 20.2754 1.1604 20.1233 0.822266 19.9111C0.661968 19.8105 0.58038 19.7069 0.540039 19.6123C0.504741 19.5295 0.48739 19.4203 0.512695 19.2705C0.538805 19.2339 0.579506 19.1821 0.635742 19.1123C0.757892 18.9608 0.937705 18.749 1.17285 18.4824C1.64207 17.9505 2.31509 17.2139 3.14355 16.3252C4.38559 14.9929 5.97242 13.324 7.73438 11.499L9.54883 9.62793C12.0286 7.08352 14.3465 4.77031 16.082 3.09277C16.9504 2.25344 17.6704 1.5756 18.1904 1.10938C18.4509 0.875823 18.6559 0.700415 18.8018 0.584961L18.8027 0.583008C18.8108 0.589068 18.8195 0.594983 18.8281 0.601562Z" fill="#7C4545"/>
<path d="M31.2578 26.7354C31.0007 26.821 30.7205 26.9117 30.4229 27L29.8184 27.1729C27.5405 27.7985 25.1454 28.6678 23.1279 29.5605C21.2565 30.3887 19.6514 31.262 18.7822 32.0068L18.6182 32.1533V32.1543C17.9083 32.8256 17.3904 33.5018 17.2012 34.2246C17.0022 34.9851 17.1867 35.7138 17.6963 36.417C18.1911 37.0998 19.0054 37.7798 20.1182 38.5039C20.9578 39.0502 21.9881 39.6345 23.2178 40.2744L24.5146 40.9336C29.0088 43.1702 31.3343 44.6985 32.5547 46.1396L32.7842 46.4268C33.6798 47.6169 33.9991 49.5743 33.5508 51.4502L33.4512 51.8242C33.3226 52.2583 33.2408 52.5791 33.1426 52.8818C33.0483 53.1725 32.9587 53.3803 32.8467 53.542C32.6482 53.8286 32.3133 54.0701 31.4102 54.2354C30.494 54.403 29.093 54.4745 26.873 54.4941C25.7674 54.5039 24.4683 54.5002 22.9375 54.4912L17.6104 54.4531H17.6094L5.2207 54.3662L6.57129 53.6504C8.16794 52.804 9.72145 51.7388 10.9355 50.7051C11.5426 50.1882 12.0725 49.6733 12.4824 49.1914C12.8342 48.7779 13.1216 48.361 13.2812 47.9688L13.3418 47.8018C13.4734 47.386 13.528 46.9694 13.4678 46.5303C13.4078 46.0936 13.2383 45.6654 12.9648 45.2197C12.4957 44.4552 11.6871 43.5862 10.4834 42.4678L9.94238 41.9727C9.11869 41.2273 8.29737 40.3965 7.63965 39.6611C7.04994 39.0018 6.62666 38.4566 6.43359 38.127L6.36523 37.999C5.98574 37.1975 5.90698 36.439 6.09277 35.7109C6.28076 34.9744 6.75118 34.2238 7.54785 33.4707C9.05146 32.0493 11.6378 30.6936 15.3135 29.4775L16.0625 29.2363C18.6887 28.4132 23.8031 27.3742 27.0537 26.9883L27.6777 26.9199C29.0147 26.7875 30.2961 26.7283 31.2578 26.7354ZM18.8281 0.601562C18.991 0.725565 19.2183 0.914938 19.5039 1.16504C20.0731 1.66349 20.8502 2.3821 21.7666 3.25195C23.5983 4.99068 25.9722 7.3215 28.3242 9.67871C30.6762 12.0359 33.0035 14.4163 34.7412 16.2549C35.6107 17.1749 36.3296 17.9557 36.8291 18.5283C37.0797 18.8156 37.2694 19.0443 37.3945 19.209C37.4398 19.2686 37.471 19.3167 37.4941 19.3516C37.4829 19.4915 37.4503 19.5976 37.4023 19.6807C37.344 19.7817 37.2483 19.8794 37.0879 19.9678C36.7477 20.1552 36.1614 20.2754 35.2344 20.2754H32.8906V24.4268L29.0371 24.6729C27.8485 24.7483 26.6176 24.825 25.5918 24.8877L23.377 25.0176L22.5342 25.0615L22.3662 21.5215L22.1748 17.4785L22.1523 17.0215L21.6953 17.0029L18.9219 16.8896L16.1494 16.7773L15.6406 16.7568L15.6289 17.2656L15.5215 21.9805L15.4209 26.3281L12.2236 27.2578C10.377 27.7941 9.10566 28.2288 8.06543 28.749C7.14529 29.2092 6.4185 29.7298 5.63672 30.4258L5.29688 30.7354L5.08203 30.9355V20.2754H2.70801C1.77583 20.2754 1.1604 20.1233 0.822266 19.9111C0.661968 19.8105 0.58038 19.7069 0.540039 19.6123C0.504741 19.5295 0.48739 19.4203 0.512695 19.2705C0.538805 19.2339 0.579506 19.1821 0.635742 19.1123C0.757892 18.9608 0.937705 18.749 1.17285 18.4824C1.64207 17.9505 2.31509 17.2139 3.14355 16.3252C4.38559 14.9929 5.97242 13.324 7.73438 11.499L9.54883 9.62793C12.0286 7.08352 14.3465 4.77031 16.082 3.09277C16.9504 2.25344 17.6704 1.5756 18.1904 1.10938C18.4509 0.875823 18.6559 0.700415 18.8018 0.584961L18.8027 0.583008C18.8108 0.589068 18.8195 0.594983 18.8281 0.601562Z" fill="#5A3E35"/>
<path d="M31.2578 26.7354C31.0007 26.821 30.7205 26.9117 30.4229 27L29.8184 27.1729C27.5405 27.7985 25.1454 28.6678 23.1279 29.5605C21.2565 30.3887 19.6514 31.262 18.7822 32.0068L18.6182 32.1533V32.1543C17.9083 32.8256 17.3904 33.5018 17.2012 34.2246C17.0022 34.9851 17.1867 35.7138 17.6963 36.417C18.1911 37.0998 19.0054 37.7798 20.1182 38.5039C20.9578 39.0502 21.9881 39.6345 23.2178 40.2744L24.5146 40.9336C29.0088 43.1702 31.3343 44.6985 32.5547 46.1396L32.7842 46.4268C33.6798 47.6169 33.9991 49.5743 33.5508 51.4502L33.4512 51.8242C33.3226 52.2583 33.2408 52.5791 33.1426 52.8818C33.0483 53.1725 32.9587 53.3803 32.8467 53.542C32.6482 53.8286 32.3133 54.0701 31.4102 54.2354C30.494 54.403 29.093 54.4745 26.873 54.4941C25.7674 54.5039 24.4683 54.5002 22.9375 54.4912L17.6104 54.4531H17.6094L5.2207 54.3662L6.57129 53.6504C8.16794 52.804 9.72145 51.7388 10.9355 50.7051C11.5426 50.1882 12.0725 49.6733 12.4824 49.1914C12.8342 48.7779 13.1216 48.361 13.2812 47.9688L13.3418 47.8018C13.4734 47.386 13.528 46.9694 13.4678 46.5303C13.4078 46.0936 13.2383 45.6654 12.9648 45.2197C12.4957 44.4552 11.6871 43.5862 10.4834 42.4678L9.94238 41.9727C9.11869 41.2273 8.29737 40.3965 7.63965 39.6611C7.04994 39.0018 6.62666 38.4566 6.43359 38.127L6.36523 37.999C5.98574 37.1975 5.90698 36.439 6.09277 35.7109C6.28076 34.9744 6.75118 34.2238 7.54785 33.4707C9.05146 32.0493 11.6378 30.6936 15.3135 29.4775L16.0625 29.2363C18.6887 28.4132 23.8031 27.3742 27.0537 26.9883L27.6777 26.9199C29.0147 26.7875 30.2961 26.7283 31.2578 26.7354ZM18.8281 0.601562C18.991 0.725565 19.2183 0.914938 19.5039 1.16504C20.0731 1.66349 20.8502 2.3821 21.7666 3.25195C23.5983 4.99068 25.9722 7.3215 28.3242 9.67871C30.6762 12.0359 33.0035 14.4163 34.7412 16.2549C35.6107 17.1749 36.3296 17.9557 36.8291 18.5283C37.0797 18.8156 37.2694 19.0443 37.3945 19.209C37.4398 19.2686 37.471 19.3167 37.4941 19.3516C37.4829 19.4915 37.4503 19.5976 37.4023 19.6807C37.344 19.7817 37.2483 19.8794 37.0879 19.9678C36.7477 20.1552 36.1614 20.2754 35.2344 20.2754H32.8906V24.4268L29.0371 24.6729C27.8485 24.7483 26.6176 24.825 25.5918 24.8877L23.377 25.0176L22.5342 25.0615L22.3662 21.5215L22.1748 17.4785L22.1523 17.0215L21.6953 17.0029L18.9219 16.8896L16.1494 16.7773L15.6406 16.7568L15.6289 17.2656L15.5215 21.9805L15.4209 26.3281L12.2236 27.2578C10.377 27.7941 9.10566 28.2288 8.06543 28.749C7.14529 29.2092 6.4185 29.7298 5.63672 30.4258L5.29688 30.7354L5.08203 30.9355V20.2754H2.70801C1.77583 20.2754 1.1604 20.1233 0.822266 19.9111C0.661968 19.8105 0.58038 19.7069 0.540039 19.6123C0.504741 19.5295 0.48739 19.4203 0.512695 19.2705C0.538805 19.2339 0.579506 19.1821 0.635742 19.1123C0.757892 18.9608 0.937705 18.749 1.17285 18.4824C1.64207 17.9505 2.31509 17.2139 3.14355 16.3252C4.38559 14.9929 5.97242 13.324 7.73438 11.499L9.54883 9.62793C12.0286 7.08352 14.3465 4.77031 16.082 3.09277C16.9504 2.25344 17.6704 1.5756 18.1904 1.10938C18.4509 0.875823 18.6559 0.700415 18.8018 0.584961L18.8027 0.583008C18.8108 0.589068 18.8195 0.594983 18.8281 0.601562Z" stroke="white"/>
<path d="M31.2578 26.7354C31.0007 26.821 30.7205 26.9117 30.4229 27L29.8184 27.1729C27.5405 27.7985 25.1454 28.6678 23.1279 29.5605C21.2565 30.3887 19.6514 31.262 18.7822 32.0068L18.6182 32.1533V32.1543C17.9083 32.8256 17.3904 33.5018 17.2012 34.2246C17.0022 34.9851 17.1867 35.7138 17.6963 36.417C18.1911 37.0998 19.0054 37.7798 20.1182 38.5039C20.9578 39.0502 21.9881 39.6345 23.2178 40.2744L24.5146 40.9336C29.0088 43.1702 31.3343 44.6985 32.5547 46.1396L32.7842 46.4268C33.6798 47.6169 33.9991 49.5743 33.5508 51.4502L33.4512 51.8242C33.3226 52.2583 33.2408 52.5791 33.1426 52.8818C33.0483 53.1725 32.9587 53.3803 32.8467 53.542C32.6482 53.8286 32.3133 54.0701 31.4102 54.2354C30.494 54.403 29.093 54.4745 26.873 54.4941C25.7674 54.5039 24.4683 54.5002 22.9375 54.4912L17.6104 54.4531H17.6094L5.2207 54.3662L6.57129 53.6504C8.16794 52.804 9.72145 51.7388 10.9355 50.7051C11.5426 50.1882 12.0725 49.6733 12.4824 49.1914C12.8342 48.7779 13.1216 48.361 13.2812 47.9688L13.3418 47.8018C13.4734 47.386 13.528 46.9694 13.4678 46.5303C13.4078 46.0936 13.2383 45.6654 12.9648 45.2197C12.4957 44.4552 11.6871 43.5862 10.4834 42.4678L9.94238 41.9727C9.11869 41.2273 8.29737 40.3965 7.63965 39.6611C7.04994 39.0018 6.62666 38.4566 6.43359 38.127L6.36523 37.999C5.98574 37.1975 5.90698 36.439 6.09277 35.7109C6.28076 34.9744 6.75118 34.2238 7.54785 33.4707C9.05146 32.0493 11.6378 30.6936 15.3135 29.4775L16.0625 29.2363C18.6887 28.4132 23.8031 27.3742 27.0537 26.9883L27.6777 26.9199C29.0147 26.7875 30.2961 26.7283 31.2578 26.7354Z" fill="#7C4545"/>
<path d="M31.2578 26.7354C31.0007 26.821 30.7205 26.9117 30.4229 27L29.8184 27.1729C27.5405 27.7985 25.1454 28.6678 23.1279 29.5605C21.2565 30.3887 19.6514 31.262 18.7822 32.0068L18.6182 32.1533V32.1543C17.9083 32.8256 17.3904 33.5018 17.2012 34.2246C17.0022 34.9851 17.1867 35.7138 17.6963 36.417C18.1911 37.0998 19.0054 37.7798 20.1182 38.5039C20.9578 39.0502 21.9881 39.6345 23.2178 40.2744L24.5146 40.9336C29.0088 43.1702 31.3343 44.6985 32.5547 46.1396L32.7842 46.4268C33.6798 47.6169 33.9991 49.5743 33.5508 51.4502L33.4512 51.8242C33.3226 52.2583 33.2408 52.5791 33.1426 52.8818C33.0483 53.1725 32.9587 53.3803 32.8467 53.542C32.6482 53.8286 32.3133 54.0701 31.4102 54.2354C30.494 54.403 29.093 54.4745 26.873 54.4941C25.7674 54.5039 24.4683 54.5002 22.9375 54.4912L17.6104 54.4531H17.6094L5.2207 54.3662L6.57129 53.6504C8.16794 52.804 9.72145 51.7388 10.9355 50.7051C11.5426 50.1882 12.0725 49.6733 12.4824 49.1914C12.8342 48.7779 13.1216 48.361 13.2812 47.9688L13.3418 47.8018C13.4734 47.386 13.528 46.9694 13.4678 46.5303C13.4078 46.0936 13.2383 45.6654 12.9648 45.2197C12.4957 44.4552 11.6871 43.5862 10.4834 42.4678L9.94238 41.9727C9.11869 41.2273 8.29737 40.3965 7.63965 39.6611C7.04994 39.0018 6.62666 38.4566 6.43359 38.127L6.36523 37.999C5.98574 37.1975 5.90698 36.439 6.09277 35.7109C6.28076 34.9744 6.75118 34.2238 7.54785 33.4707C9.05146 32.0493 11.6378 30.6936 15.3135 29.4775L16.0625 29.2363C18.6887 28.4132 23.8031 27.3742 27.0537 26.9883L27.6777 26.9199C29.0147 26.7875 30.2961 26.7283 31.2578 26.7354Z" fill="#847E7E"/>
<path d="M31.2578 26.7354C31.0007 26.821 30.7205 26.9117 30.4229 27L29.8184 27.1729C27.5405 27.7985 25.1454 28.6678 23.1279 29.5605C21.2565 30.3887 19.6514 31.262 18.7822 32.0068L18.6182 32.1533V32.1543C17.9083 32.8256 17.3904 33.5018 17.2012 34.2246C17.0022 34.9851 17.1867 35.7138 17.6963 36.417C18.1911 37.0998 19.0054 37.7798 20.1182 38.5039C20.9578 39.0502 21.9881 39.6345 23.2178 40.2744L24.5146 40.9336C29.0088 43.1702 31.3343 44.6985 32.5547 46.1396L32.7842 46.4268C33.6798 47.6169 33.9991 49.5743 33.5508 51.4502L33.4512 51.8242C33.3226 52.2583 33.2408 52.5791 33.1426 52.8818C33.0483 53.1725 32.9587 53.3803 32.8467 53.542C32.6482 53.8286 32.3133 54.0701 31.4102 54.2354C30.494 54.403 29.093 54.4745 26.873 54.4941C25.7674 54.5039 24.4683 54.5002 22.9375 54.4912L17.6104 54.4531H17.6094L5.2207 54.3662L6.57129 53.6504C8.16794 52.804 9.72145 51.7388 10.9355 50.7051C11.5426 50.1882 12.0725 49.6733 12.4824 49.1914C12.8342 48.7779 13.1216 48.361 13.2812 47.9688L13.3418 47.8018C13.4734 47.386 13.528 46.9694 13.4678 46.5303C13.4078 46.0936 13.2383 45.6654 12.9648 45.2197C12.4957 44.4552 11.6871 43.5862 10.4834 42.4678L9.94238 41.9727C9.11869 41.2273 8.29737 40.3965 7.63965 39.6611C7.04994 39.0018 6.62666 38.4566 6.43359 38.127L6.36523 37.999C5.98574 37.1975 5.90698 36.439 6.09277 35.7109C6.28076 34.9744 6.75118 34.2238 7.54785 33.4707C9.05146 32.0493 11.6378 30.6936 15.3135 29.4775L16.0625 29.2363C18.6887 28.4132 23.8031 27.3742 27.0537 26.9883L27.6777 26.9199C29.0147 26.7875 30.2961 26.7283 31.2578 26.7354Z" stroke="white"/>
</svg>
